<svg width="24" height="24" viewBox="0 0 24 24" fill="none" xmlns="http://www.w3.org/2000/svg">
    <path d="M22.532 2.26406H19.7523V1.47187C19.7523 0.942187 19.3258 0.515625 18.7961 0.515625C18.2664 0.515625 17.8398 0.942187 17.8398 1.47187V2.26406H6.16797V1.47187C6.16797 0.942187 5.74141 0.515625 5.21172 0.515625C4.68203 0.515625 4.25547 0.942187 4.25547 1.47187V2.26406H1.47578C0.946094 2.26406 0.519531 2.69062 0.519531 3.22031V22.5281C0.519531 23.0578 0.946094 23.4844 1.47578 23.4844H22.532C23.0617 23.4844 23.4883 23.0578 23.4883 22.5281V3.22031C23.4883 2.69062 23.057 2.26406 22.532 2.26406ZM21.5711 21.5719H2.43203V4.17656H4.25547V4.77656C4.25547 5.30625 4.68203 5.73281 5.21172 5.73281C5.74141 5.73281 6.16797 5.30625 6.16797 4.77656V4.17656H17.8352V4.77656C17.8352 5.30625 18.2617 5.73281 18.7914 5.73281C19.3211 5.73281 19.7477 5.30625 19.7477 4.77656V4.17656H21.5711V21.5719Z" fill="#505050"/>
    <path d="M6.59414 11.2453C7.19734 11.2453 7.68633 10.7563 7.68633 10.1531C7.68633 9.5499 7.19734 9.06091 6.59414 9.06091C5.99094 9.06091 5.50195 9.5499 5.50195 10.1531C5.50195 10.7563 5.99094 11.2453 6.59414 11.2453Z" fill="#505050"/>
    <path d="M12.0043 11.2453C12.6075 11.2453 13.0965 10.7563 13.0965 10.1531C13.0965 9.5499 12.6075 9.06091 12.0043 9.06091C11.4011 9.06091 10.9121 9.5499 10.9121 10.1531C10.9121 10.7563 11.4011 11.2453 12.0043 11.2453Z" fill="#505050"/>
    <path d="M17.4125 11.2453C18.0157 11.2453 18.5047 10.7563 18.5047 10.1531C18.5047 9.5499 18.0157 9.06091 17.4125 9.06091C16.8093 9.06091 16.3203 9.5499 16.3203 10.1531C16.3203 10.7563 16.8093 11.2453 17.4125 11.2453Z" fill="#505050"/>
    <path d="M6.59414 17.5734C7.19734 17.5734 7.68633 17.0844 7.68633 16.4812C7.68633 15.878 7.19734 15.389 6.59414 15.389C5.99094 15.389 5.50195 15.878 5.50195 16.4812C5.50195 17.0844 5.99094 17.5734 6.59414 17.5734Z" fill="#505050"/>
    <path d="M12.0043 17.5734C12.6075 17.5734 13.0965 17.0844 13.0965 16.4812C13.0965 15.878 12.6075 15.389 12.0043 15.389C11.4011 15.389 10.9121 15.878 10.9121 16.4812C10.9121 17.0844 11.4011 17.5734 12.0043 17.5734Z" fill="#505050"/>
    <path d="M17.4125 17.5734C18.0157 17.5734 18.5047 17.0844 18.5047 16.4812C18.5047 15.878 18.0157 15.389 17.4125 15.389C16.8093 15.389 16.3203 15.878 16.3203 16.4812C16.3203 17.0844 16.8093 17.5734 17.4125 17.5734Z" fill="#505050"/>
</svg>
