<svg width="218" height="90" viewBox="0 0 218 90" fill="none" xmlns="http://www.w3.org/2000/svg">
    <rect x="12.2949" y="12.2552" width="176.69" height="69.4504" transform="rotate(-3.50394 12.2949 12.2552)" fill="white"/>
    <circle cx="5.57753" cy="46.8949" r="3.43274" transform="rotate(-3.50394 5.57753 46.8949)" fill="#C5C7CB"/>
    <path fill-rule="evenodd" clip-rule="evenodd" d="M3.2793 11.7841L135.767 3.67166L136.126 9.52473L135.761 9.54708C134.815 9.60501 134.094 10.419 134.152 11.3651C134.21 12.3113 135.024 13.0313 135.97 12.9734L136.336 12.9511L136.545 16.3773L136.18 16.3997C135.234 16.4576 134.514 17.2716 134.572 18.2178C134.63 19.1639 135.444 19.884 136.39 19.826L136.755 19.8037L136.965 23.23L136.6 23.2524C135.654 23.3103 134.934 24.1243 134.992 25.0704C135.049 26.0166 135.863 26.7366 136.81 26.6787L137.175 26.6563L137.385 30.0826L137.019 30.105C136.073 30.1629 135.353 30.9769 135.411 31.9231C135.469 32.8692 136.283 33.5892 137.229 33.5313L137.594 33.509L137.804 36.9353L137.439 36.9577C136.493 37.0156 135.773 37.8296 135.831 38.7757C135.889 39.7219 136.703 40.4419 137.649 40.384L138.014 40.3616L138.224 43.7879L137.858 43.8103C136.912 43.8682 136.192 44.6822 136.25 45.6283C136.308 46.5745 137.122 47.2945 138.068 47.2366L138.434 47.2142L138.652 50.7835L138.223 50.8098C137.277 50.8677 136.557 51.6817 136.615 52.6278C136.673 53.574 137.487 54.294 138.433 54.2361L138.862 54.2098L139.072 57.6362L138.643 57.6624C137.697 57.7204 136.977 58.5343 137.035 59.4805C137.093 60.4267 137.906 61.1467 138.853 61.0888L139.281 61.0625L139.491 64.4888L139.062 64.5151C138.116 64.573 137.396 65.387 137.454 66.3331C137.512 67.2793 138.326 67.9993 139.272 67.9414L139.701 67.9151L140.051 73.6241L7.5626 81.7365L5.82311 53.3282C9.363 53.1025 12.0544 50.0541 11.8375 46.5115C11.6206 42.969 8.57735 40.2717 5.03637 40.4796L3.2793 11.7841Z" fill="#C5C7CB"/>
    <path fill-rule="evenodd" clip-rule="evenodd" d="M195.729 0.00012207L136.196 3.64538L136.555 9.4984L137.042 9.46854C137.988 9.4106 138.802 10.1306 138.86 11.0768C138.918 12.023 138.198 12.8369 137.252 12.8949L136.764 12.9247L136.974 16.3511L137.462 16.3212C138.408 16.2633 139.222 16.9833 139.28 17.9295C139.338 18.8756 138.618 19.6896 137.672 19.7475L137.184 19.7774L137.394 23.2037L137.881 23.1739C138.828 23.1159 139.642 23.836 139.699 24.7821C139.757 25.7283 139.037 26.5423 138.091 26.6002L137.604 26.6301L137.813 30.0564L138.301 30.0265C139.247 29.9686 140.061 30.6886 140.119 31.6348C140.177 32.5809 139.457 33.3949 138.511 33.4528L138.023 33.4827L138.233 36.909L138.721 36.8792C139.667 36.8212 140.481 37.5413 140.539 38.4874C140.597 39.4336 139.876 40.2476 138.93 40.3055L138.443 40.3353L138.653 43.7616L139.14 43.7318C140.086 43.6739 140.9 44.3939 140.958 45.34C141.016 46.2862 140.296 47.1002 139.35 47.1581L138.862 47.188L139.081 50.7573L139.51 50.731C140.456 50.6731 141.27 51.3931 141.328 52.3393C141.386 53.2854 140.666 54.0994 139.72 54.1573L139.291 54.1836L139.501 57.6099L139.929 57.5837C140.876 57.5257 141.69 58.2458 141.748 59.1919C141.805 60.1381 141.085 60.9521 140.139 61.01L139.71 61.0363L139.92 64.4626L140.349 64.4364C141.295 64.3784 142.109 65.0985 142.167 66.0446C142.225 66.9908 141.505 67.8047 140.559 67.8627L140.13 67.8889L140.471 73.4567L200.003 69.8114L198.272 41.5434C194.772 41.6974 191.782 39.017 191.567 35.5065C191.352 31.9959 193.993 28.9707 197.486 28.6966L195.729 0.00012207Z" fill="#C5C7CB"/>
    <rect x="33.4824" y="20.5497" width="176.69" height="69.4504" fill="white"/>
    <circle cx="24.6593" cy="54.714" r="3.43274" fill="#EEF0F1"/>
    <path fill-rule="evenodd" clip-rule="evenodd" d="M24.5117 19.5284H157.248V25.3925H156.881C155.933 25.3925 155.165 26.1609 155.165 27.1089C155.165 28.0568 155.933 28.8252 156.881 28.8252H157.248V32.258H156.881C155.933 32.258 155.165 33.0264 155.165 33.9743C155.165 34.9222 155.933 35.6907 156.881 35.6907H157.248V39.1234H156.881C155.933 39.1234 155.165 39.8919 155.165 40.8398C155.165 41.7877 155.933 42.5562 156.881 42.5562H157.248V45.9889H156.881C155.933 45.9889 155.165 46.7573 155.165 47.7053C155.165 48.6532 155.933 49.4216 156.881 49.4216H157.248V52.8544H156.881C155.933 52.8544 155.165 53.6229 155.165 54.5708C155.165 55.5187 155.933 56.2872 156.881 56.2872H157.248V59.7199H156.881C155.933 59.7199 155.165 60.4883 155.165 61.4363C155.165 62.3842 155.933 63.1526 156.881 63.1526H157.248V66.7285H156.818C155.87 66.7285 155.102 67.497 155.102 68.4449C155.102 69.3928 155.87 70.1613 156.818 70.1613H157.248V73.594H156.818C155.87 73.594 155.102 74.3625 155.102 75.3104C155.102 76.2583 155.87 77.0268 156.818 77.0268H157.248V80.4595H156.818C155.87 80.4595 155.102 81.228 155.102 82.1759C155.102 83.1238 155.87 83.8923 156.818 83.8923H157.248V89.6119H24.5117V61.1504C28.0589 61.1416 30.9318 58.2633 30.9318 54.714C30.9318 51.1647 28.0589 48.2864 24.5117 48.2777V19.5284Z" fill="#EEF0F1"/>
    <path fill-rule="evenodd" clip-rule="evenodd" d="M217.322 19.5284H157.678V25.3925H158.167C159.115 25.3925 159.883 26.1609 159.883 27.1089C159.883 28.0568 159.115 28.8252 158.167 28.8252H157.678V32.258H158.167C159.115 32.258 159.883 33.0264 159.883 33.9743C159.883 34.9222 159.115 35.6907 158.167 35.6907H157.678V39.1234H158.167C159.115 39.1234 159.883 39.8919 159.883 40.8398C159.883 41.7877 159.115 42.5562 158.167 42.5562H157.678V45.9889H158.167C159.115 45.9889 159.883 46.7573 159.883 47.7053C159.883 48.6532 159.115 49.4216 158.167 49.4216H157.678V52.8544H158.167C159.115 52.8544 159.883 53.6229 159.883 54.5708C159.883 55.5187 159.115 56.2872 158.167 56.2872H157.678V59.7199H158.167C159.115 59.7199 159.883 60.4883 159.883 61.4363C159.883 62.3842 159.115 63.1526 158.167 63.1526H157.678V66.7285H158.107C159.055 66.7285 159.823 67.497 159.823 68.4449C159.823 69.3928 159.055 70.1613 158.107 70.1613H157.678V73.594H158.107C159.055 73.594 159.823 74.3625 159.823 75.3104C159.823 76.2583 159.055 77.0268 158.107 77.0268H157.678V80.4595H158.107C159.055 80.4595 159.823 81.228 159.823 82.1759C159.823 83.1238 159.055 83.8923 158.107 83.8923H157.678V89.4705H217.322V61.1494C213.819 61.0896 210.998 58.2313 210.998 54.714C210.998 51.1967 213.819 48.3384 217.322 48.2786V19.5284Z" fill="#EEF0F1"/>
</svg>
