<svg width="25" height="25" viewBox="0 0 25 25" fill="none" xmlns="http://www.w3.org/2000/svg">
    <path d="M21.9081 6.26069L21.3902 6.77866C20.967 7.20186 20.4043 7.43491 19.8058 7.43491C19.2072 7.43491 18.6446 7.20186 18.2214 6.77866C17.7982 6.35547 17.5651 5.79277 17.5651 5.19429C17.5651 4.5958 17.7982 4.03311 18.2214 3.60986L18.7394 3.09189L15.6474 0L0 15.6474L3.09189 18.7393L3.60986 18.2213C4.03306 17.7981 4.59575 17.5651 5.19429 17.5651C5.79282 17.5651 6.35542 17.7981 6.77866 18.2213C7.20186 18.6445 7.43491 19.2072 7.43491 19.8057C7.43491 20.4042 7.20186 20.9669 6.77866 21.3901L6.26069 21.9081L9.35259 25L25 9.35259L21.9081 6.26069ZM8.28174 21.8572C8.68394 21.2545 8.9 20.5467 8.9 19.8057C8.9 18.8159 8.51455 17.8853 7.8146 17.1854C7.1147 16.4854 6.18408 16.1 5.19429 16.1C4.45327 16.1 3.74546 16.3161 3.14277 16.7183L2.07187 15.6474L15.6474 2.07187L16.7183 3.14277C16.3161 3.74546 16.1 4.45327 16.1 5.19429C16.1 6.18413 16.4854 7.1147 17.1854 7.8146C17.8853 8.51455 18.8159 8.9 19.8057 8.9C20.5467 8.9 21.2545 8.68394 21.8572 8.28174L22.9281 9.35259L9.35259 22.9281L8.28174 21.8572Z" fill="#FA3030"/>
    <path d="M14.5984 9.36251L13.5625 10.3984L14.6026 11.4385L15.6385 10.4026L14.5984 9.36251Z" fill="#FA3030"/>
    <path d="M12.5183 7.28176L11.4824 8.31769L12.5225 9.35776L13.5584 8.32183L12.5183 7.28176Z" fill="#FA3030"/>
    <path d="M16.6785 11.4426L15.6426 12.4786L16.6827 13.5186L17.7186 12.4827L16.6785 11.4426Z" fill="#FA3030"/>
    <circle cx="17.5" cy="17.5" r="7.5" fill="#FA3030"/>
    <path d="M17.7574 23C16.0723 23 14.6915 22.4938 13.6149 21.4813C12.5383 20.4543 12 19.1236 12 17.4892C12 15.956 12.5305 14.6614 13.5915 13.6055C14.6525 12.5352 15.9787 12 17.5702 12C19.2397 12 20.5582 12.5352 21.5255 13.6055C22.5085 14.6614 23 15.9993 23 17.6193V18.0316H13.8489C13.927 19.0585 14.3326 19.9191 15.066 20.6134C15.7993 21.3077 16.7511 21.6548 17.9213 21.6548C19.3255 21.6548 20.4879 21.2137 21.4085 20.3314L22.2511 21.3945C21.0965 22.4648 19.5986 23 17.7574 23ZM21.2681 16.8383C21.2525 15.9415 20.9248 15.1387 20.2851 14.43C19.6454 13.7068 18.7326 13.3452 17.5468 13.3452C16.4234 13.3452 15.534 13.6995 14.8787 14.4083C14.239 15.117 13.8957 15.927 13.8489 16.8383H21.2681Z" fill="white"/>
</svg>
